<?xml version="1.0" encoding="utf-8"?>
<!-- Generator: Adobe Illustrator 17.1.0, SVG Export Plug-In . SVG Version: 6.00 Build 0)  -->
<!DOCTYPE svg PUBLIC "-//W3C//DTD SVG 1.1//EN" "http://www.w3.org/Graphics/SVG/1.1/DTD/svg11.dtd">
<svg version="1.1" id="Layer_1" xmlns="http://www.w3.org/2000/svg" xmlns:xlink="http://www.w3.org/1999/xlink" x="0px" y="0px"
	 viewBox="0 0 40 36" enable-background="new 0 0 40 36" xml:space="preserve">
<g>
	<path fill="#FFFFFF" d="M35.3,9.8L4.7,10C2.1,10,0,7.8,0,5.2V5.1c0-2.7,2.1-4.8,4.7-4.8L35.3,0C37.9,0,40,2.2,40,4.8v0.1
		C40,7.6,37.9,9.8,35.3,9.8z"/>
	<path fill="#FFFFFF" d="M35.3,22.5L4.7,22.7c-2.6,0-4.7-2.2-4.7-4.8v-0.1C0,15.1,2.1,13,4.7,13l30.6-0.2c2.6,0,4.7,2.2,4.7,4.8v0.1
		C40,20.3,37.9,22.5,35.3,22.5z"/>
	<path fill="#FFFFFF" d="M35.3,35.7L4.7,36C2.1,36,0,33.8,0,31.1V31c0-2.7,2.1-4.8,4.7-4.8L35.3,26c2.6,0,4.7,2.2,4.7,4.8v0.1
		C40,33.6,37.9,35.7,35.3,35.7z"/>
</g>
</svg>
