<?xml version="1.0" encoding="utf-8"?>
<!-- Generator: Adobe Illustrator 17.1.0, SVG Export Plug-In . SVG Version: 6.00 Build 0)  -->
<!DOCTYPE svg PUBLIC "-//W3C//DTD SVG 1.1//EN" "http://www.w3.org/Graphics/SVG/1.1/DTD/svg11.dtd">
<svg version="1.1" id="Layer_1" xmlns="http://www.w3.org/2000/svg" xmlns:xlink="http://www.w3.org/1999/xlink" x="0px" y="0px"
	 viewBox="0 216 792 792" enable-background="new 0 216 792 792" xml:space="preserve">
<path fill="#F4F4F5" d="M396,216C177,216,0,393,0,612s177,396,396,396s396-177,396-396S615,216,396,216z M486.8,544.4l-4.7,58.2
	h-62.9v205h-76.9v-205h-41.9v-58.2h41.9v-39.6c0-18.6,0-44.3,14-60.6c11.6-18.6,30.3-30.3,62.9-30.3c51.2,0,74.5,7,74.5,7l-9.3,60.6
	c0,0-16.3-4.7-32.6-4.7c-16.3,0-30.3,4.7-30.3,21v46.6H486.8z"/>
</svg>
