<?xml version="1.0" encoding="utf-8"?>
<!-- Generator: Adobe Illustrator 18.1.0, SVG Export Plug-In . SVG Version: 6.00 Build 0)  -->
<!DOCTYPE svg PUBLIC "-//W3C//DTD SVG 1.1//EN" "http://www.w3.org/Graphics/SVG/1.1/DTD/svg11.dtd">
<svg version="1.1" id="Layer_1" xmlns="http://www.w3.org/2000/svg" xmlns:xlink="http://www.w3.org/1999/xlink" x="0px" y="0px"
	 viewBox="0 0 145.4 105.2" enable-background="new 0 0 145.4 105.2" xml:space="preserve">
<path stroke="#FFFFFF" stroke-miterlimit="10" d="M133.7,8.8c0-4.6-3.5-8.3-7.9-8.3H19.6c-4.4,0-7.9,3.7-7.9,8.3v76.8
	c0,4.6,3.5,7.9,7.9,7.9h106.2c4.4,0,7.9-3.3,7.9-7.9V8.8z M125.7,83.5h-107v-71h107V83.5z"/>
<path stroke="#FFFFFF" stroke-miterlimit="10" d="M61.9,93.5h21.6c2.3,0,4.2,1.9,4.2,4.2v3.1h-30v-3.1
	C57.7,95.4,59.6,93.5,61.9,93.5z"/>
<rect x="48.8" y="100.3" stroke="#FFFFFF" stroke-miterlimit="10" width="47.8" height="2.8"/>
</svg>
