<?xml version="1.0" encoding="utf-8"?>
<!-- Generator: Adobe Illustrator 17.1.0, SVG Export Plug-In . SVG Version: 6.00 Build 0)  -->
<!DOCTYPE svg PUBLIC "-//W3C//DTD SVG 1.1//EN" "http://www.w3.org/Graphics/SVG/1.1/DTD/svg11.dtd">
<svg version="1.1" id="Layer_1" xmlns="http://www.w3.org/2000/svg" xmlns:xlink="http://www.w3.org/1999/xlink" x="0px" y="0px"
	 viewBox="0 216 792 792" enable-background="new 0 216 792 792" xml:space="preserve">
<g>
	<polygon fill="#F4F4F5" points="549.7,469.9 549.7,460.6 540.4,460.6 482.2,460.6 482.2,528.1 549.7,528.1 	"/>
	<path fill="#F4F4F5" d="M396,679.6c39.6,0,69.9-30.3,69.9-69.9c0-14-4.7-28-14-39.6c-11.6-16.3-32.6-28-55.9-28
		s-44.3,11.6-55.9,30.3c-9.3,11.6-14,25.6-14,37.3C326.1,649.3,356.4,679.6,396,679.6z"/>
	<path fill="#F4F4F5" d="M396,216C177,216,0,393,0,612s177,396,396,396s396-177,396-396S615,216,396,216z M594,572.4v163.1
		c0,41.9-34.9,76.9-76.9,76.9H274.9c-41.9,0-76.9-34.9-76.9-76.9V572.4v-81.5c0-41.9,34.9-76.9,76.9-76.9h242.3
		c41.9,0,76.9,34.9,76.9,76.9V572.4z"/>
	<path fill="#F4F4F5" d="M507.8,609.7c0,60.6-48.9,109.5-109.5,109.5c-60.6,0-109.5-48.9-109.5-109.5c0-14,2.3-28,7-39.6h-58.2
		v163.1c0,21,16.3,37.3,37.3,37.3h244.6c21,0,37.3-16.3,37.3-37.3h2.3V570.1h-58.2C505.5,581.7,507.8,595.7,507.8,609.7z"/>
</g>
</svg>
