<?xml version="1.0" encoding="utf-8"?>
<!-- Generator: Adobe Illustrator 18.1.0, SVG Export Plug-In . SVG Version: 6.00 Build 0)  -->
<!DOCTYPE svg PUBLIC "-//W3C//DTD SVG 1.1//EN" "http://www.w3.org/Graphics/SVG/1.1/DTD/svg11.dtd">
<svg version="1.1" id="Layer_1" xmlns="http://www.w3.org/2000/svg" xmlns:xlink="http://www.w3.org/1999/xlink" x="0px" y="0px"
	 viewBox="0 0 97 185" enable-background="new 0 0 97 185" xml:space="preserve">
<rect x="4.3" y="19.1" opacity="0.5" fill="#FFFFFF" width="86.3" height="146.8"/>
<path stroke="#FFFFFF" stroke-miterlimit="10" d="M96.5,12.6c0-6.7-5.4-12.1-12.1-12.1H12.6C5.9,0.5,0.5,5.9,0.5,12.6v159.7
	c0,6.7,5.4,12.1,12.1,12.1h71.7c6.7,0,12.1-5.4,12.1-12.1V12.6z M88.5,163.5h-81v-142h81V163.5z"/>
<circle stroke="#333333" stroke-miterlimit="10" cx="48.7" cy="173.5" r="7.5"/>
<circle stroke="#999999" stroke-width="0.5" stroke-miterlimit="10" cx="48.7" cy="173.5" r="6.7"/>
<path stroke="#999999" stroke-width="0.5" stroke-miterlimit="10" d="M42.8,14.9h11.8c0.9,0,1.6-0.7,1.6-1.6v0
	c0-0.9-0.7-1.6-1.6-1.6H42.8c-0.9,0-1.6,0.7-1.6,1.6v0C41.2,14.1,41.9,14.9,42.8,14.9z"/>
<circle stroke="#999999" stroke-width="0.5" stroke-miterlimit="10" cx="48.7" cy="8.4" r="1.5"/>
</svg>
