<?xml version="1.0" encoding="utf-8"?>
<!-- Generator: Adobe Illustrator 18.1.1, SVG Export Plug-In . SVG Version: 6.00 Build 0)  -->
<!DOCTYPE svg PUBLIC "-//W3C//DTD SVG 1.1//EN" "http://www.w3.org/Graphics/SVG/1.1/DTD/svg11.dtd">
<svg version="1.1" id="Layer_1" xmlns="http://www.w3.org/2000/svg" xmlns:xlink="http://www.w3.org/1999/xlink" x="0px" y="0px"
	 viewBox="0 0 250 250" enable-background="new 0 0 250 250" xml:space="preserve">
<g>
	<circle cx="125.6" cy="51.5" r="23"/>
	<path d="M157.6,109v121.5c0,7.2-5.8,13-13,13h0c-7.2,0-13-5.8-13-13v-63c0-1.7-0.7-3.2-1.8-4.2c-1-1.1-2.5-1.7-4.1-1.8
		c-3.4-0.1-6.2,2.9-6.2,6.3v62.7c0,7.2-5.8,13-13,13h0c-7.2,0-13-5.8-13-13v-121c0-17.8,14.2-32.7,32-32.8c9,0,16.9,3.6,22.8,9.4
		C154.2,92,157.6,100.1,157.6,109z"/>
	<path d="M195.5,74.8L195.5,74.8c2.1,4.6,0,10-4.6,12.1l-53,23.6c-4.6,2.1-10,0-12.1-4.6l0,0c-2.1-4.6,0-10,4.6-12.1l53-23.6
		C188.1,68.1,193.5,70.2,195.5,74.8z"/>
	<path d="M192,85.2L192,85.2c-4.9,1.4-9.9-1.4-11.3-6.3l-11-38.7c-1.4-4.9,1.4-9.9,6.3-11.3l0,0c4.9-1.4,9.9,1.4,11.3,6.3l11,38.7
		C199.7,78.8,196.9,83.8,192,85.2z"/>
	<path d="M185.5,33.9L185.5,33.9c2,4.6-0.1,10-4.7,12.1l-10.1,4.4c-4.6,2-10-0.1-12.1-4.7l0,0c-2-4.6,0.1-10,4.7-12.1l10.1-4.4
		C178,27.1,183.4,29.3,185.5,33.9z"/>
	<path d="M54.5,74.8L54.5,74.8c-2.1,4.6,0,10,4.6,12.1l53,23.6c4.6,2.1,10,0,12.1-4.6l0,0c2.1-4.6,0-10-4.6-12.1l-53-23.6
		C61.9,68.1,56.5,70.2,54.5,74.8z"/>
	<path d="M58,85.2L58,85.2c4.9,1.4,9.9-1.4,11.3-6.3l11-38.7c1.4-4.9-1.4-9.9-6.3-11.3l0,0c-4.9-1.4-9.9,1.4-11.3,6.3l-11,38.7
		C50.3,78.8,53.1,83.8,58,85.2z"/>
	<path d="M64.5,33.9L64.5,33.9c-2,4.6,0.1,10,4.7,12.1l10.1,4.4c4.6,2,10-0.1,12.1-4.7l0,0c2-4.6-0.1-10-4.7-12.1l-10.1-4.4
		C72,27.1,66.6,29.3,64.5,33.9z"/>
	<ellipse cx="125" cy="109" rx="38.7" ry="32.2"/>
</g>
<circle stroke="#000000" stroke-width="16" stroke-miterlimit="10" cx="169.7" cy="86.1" r="12.1"/>
<circle stroke="#000000" stroke-width="16" stroke-miterlimit="10" cx="81.7" cy="86.1" r="12.1"/>
<ellipse cx="144.7" cy="160.1" rx="16" ry="35.2"/>
<ellipse cx="106.7" cy="160.1" rx="16" ry="35.2"/>
<path fill="#5B0000" stroke="#000000" stroke-miterlimit="10" d="M148.3,49.3l4.2-12.3V25.7l-8.1,8l4.1-17l-10.2,11.7l3-16.7
	l-10.9,11.5L125.6,8l-11.5,14.7L106.5,12v13.3l-6.6-9.7c0,0-0.4,17.3-0.4,18s-5.8-3.3-5.8-3.3l3.3,18.4l6.2,8.3l1.6-15.6L108,47
	l7-7.2l5,7.2l5.6-7.2l6.7,4.9l3.7-4.9l7,7.2l1.5-5.5L148.3,49.3z"/>
<g>
	<path fill="#751D00" stroke="#000000" stroke-width="1.034" stroke-miterlimit="10" d="M48.7,18.3L35.9,43.9L20,24.3L29,83.7
		l-23-18.2l34.2,59l-34.2-9.2l60,38.2l-47.8-8.3l39,51.2L20,190l46.2,32.2L37.6,225l43.8,9.5l-12.3-5l9.9-6l-25.4-17L75,204
		l-28.5-42l32.5-2.8l-30-21.8l4.6-3.5L33.3,93.1l3.2-3.3c1.8-1.8,2.6-4.2,2.3-6.7l-3.4-28l11-4.1L48.7,18.3z"/>
	<path fill="#751D00" stroke="#000000" stroke-width="1.034" stroke-miterlimit="10" d="M201.3,18.3l12.9,25.7L230,24.3L221,83.7
		l23-18.2l-34.2,59l34.2-9.2l-60,38.2l47.8-8.3l-39,51.2L230,190l-46.2,32.2l28.5,2.8l-43.8,9.5l12.3-5l-9.9-6l25.4-17L175,204
		l28.5-42l-32.5-2.8l30-21.8l-4.6-3.5l20.3-40.9l-3.2-3.3c-1.8-1.8-2.6-4.2-2.3-6.7l3.4-28l-11-4.1L201.3,18.3z"/>
</g>
</svg>
