<?xml version="1.0" encoding="utf-8"?>
<!-- Generator: Adobe Illustrator 18.1.1, SVG Export Plug-In . SVG Version: 6.00 Build 0)  -->
<!DOCTYPE svg PUBLIC "-//W3C//DTD SVG 1.1//EN" "http://www.w3.org/Graphics/SVG/1.1/DTD/svg11.dtd">
<svg version="1.1" id="Layer_1" xmlns="http://www.w3.org/2000/svg" xmlns:xlink="http://www.w3.org/1999/xlink" x="0px" y="0px"
	 viewBox="0 0 250 250" enable-background="new 0 0 250 250" xml:space="preserve">
<g>
	<circle cx="125.6" cy="51.5" r="23"/>
	<path d="M157.6,109v121.5c0,7.2-5.8,13-13,13h0c-7.2,0-13-5.8-13-13v-63c0-1.7-0.7-3.2-1.8-4.2c-1-1.1-2.5-1.7-4.1-1.8
		c-3.4-0.1-6.2,2.9-6.2,6.3v62.7c0,7.2-5.8,13-13,13h0c-7.2,0-13-5.8-13-13v-121c0-17.8,14.2-32.7,32-32.8c9,0,16.9,3.6,22.8,9.4
		C154.2,92,157.6,100.1,157.6,109z"/>
	<path d="M195.5,74.8L195.5,74.8c2.1,4.6,0,10-4.6,12.1l-53,23.6c-4.6,2.1-10,0-12.1-4.6l0,0c-2.1-4.6,0-10,4.6-12.1l53-23.6
		C188.1,68.1,193.5,70.2,195.5,74.8z"/>
	<path d="M192,85.2L192,85.2c-4.9,1.4-9.9-1.4-11.3-6.3l-11-38.7c-1.4-4.9,1.4-9.9,6.3-11.3l0,0c4.9-1.4,9.9,1.4,11.3,6.3l11,38.7
		C199.7,78.8,196.9,83.8,192,85.2z"/>
	<path d="M185.5,33.9L185.5,33.9c2,4.6-0.1,10-4.7,12.1l-10.1,4.4c-4.6,2-10-0.1-12.1-4.7l0,0c-2-4.6,0.1-10,4.7-12.1l10.1-4.4
		C178,27.1,183.4,29.3,185.5,33.9z"/>
	<path d="M54.5,74.8L54.5,74.8c-2.1,4.6,0,10,4.6,12.1l53,23.6c4.6,2.1,10,0,12.1-4.6l0,0c2.1-4.6,0-10-4.6-12.1l-53-23.6
		C61.9,68.1,56.5,70.2,54.5,74.8z"/>
	<path d="M58,85.2L58,85.2c4.9,1.4,9.9-1.4,11.3-6.3l11-38.7c1.4-4.9-1.4-9.9-6.3-11.3l0,0c-4.9-1.4-9.9,1.4-11.3,6.3l-11,38.7
		C50.3,78.8,53.1,83.8,58,85.2z"/>
	<path d="M64.5,33.9L64.5,33.9c-2,4.6,0.1,10,4.7,12.1l10.1,4.4c4.6,2,10-0.1,12.1-4.7l0,0c2-4.6-0.1-10-4.7-12.1l-10.1-4.4
		C72,27.1,66.6,29.3,64.5,33.9z"/>
</g>
<circle stroke="#000000" stroke-width="9" stroke-miterlimit="10" cx="169.7" cy="86.1" r="12.1"/>
<circle stroke="#000000" stroke-width="9" stroke-miterlimit="10" cx="81.7" cy="86.1" r="12.1"/>
<polygon fill="#FCEE21" stroke="#000000" stroke-miterlimit="10" points="147.5,44.5 151.8,26.5 141.7,32 139,17 129.7,25 
	127.4,11.5 119.7,25 111,15.2 107,30.7 102.6,24.8 103.1,46.7 110.5,41 112.5,43.5 117.8,38.8 121.2,41.5 125.6,38.8 131.5,39.8 
	134.8,38.2 138.5,41.2 141.5,39.8 "/>
<g>
	<path fill="#FCEE21" stroke="#000000" stroke-miterlimit="10" d="M85.5,220.4c-2.4,0.5-32.6,0.1-32.6,0.1l15.7-3.2l-22.1-27.6
		L85.5,220.4z"/>
	<polygon fill="#FCEE21" stroke="#000000" stroke-width="0.9705" stroke-miterlimit="10" points="74.6,168 49.3,167.1 66.7,163.2 
		56.1,150.4 77.5,161.6 69.7,165.2 	"/>
	<polygon fill="#FCEE21" stroke="#000000" stroke-miterlimit="10" points="60.2,123.1 30.2,132.7 43.8,125.7 16.4,95.4 	"/>
	<polygon fill="#FCEE21" stroke="#000000" stroke-miterlimit="10" points="30,62.2 19,31.3 32,46.8 36.5,34.5 51,57.7 35,52.5 	"/>
	<path fill="#FCEE21" stroke="#000000" stroke-miterlimit="10" d="M164.4,220.4c2.4,0.5,32.6,0.1,32.6,0.1l-15.7-3.2l22.1-27.6
		L164.4,220.4z"/>
	<polygon fill="#FCEE21" stroke="#000000" stroke-width="0.9705" stroke-miterlimit="10" points="175.4,168 200.7,167.1 
		183.2,163.2 193.8,150.4 172.5,161.6 180.2,165.2 	"/>
	<polygon fill="#FCEE21" stroke="#000000" stroke-miterlimit="10" points="189.7,123.1 219.8,132.7 206.1,125.7 233.5,95.4 	"/>
	<polygon fill="#FCEE21" stroke="#000000" stroke-miterlimit="10" points="219.9,62.2 230.9,31.3 217.9,46.8 213.4,34.5 198.9,57.7 
		214.9,52.5 	"/>
</g>
</svg>
