<?xml version="1.0" encoding="utf-8"?>
<!-- Generator: Adobe Illustrator 18.1.0, SVG Export Plug-In . SVG Version: 6.00 Build 0)  -->
<!DOCTYPE svg PUBLIC "-//W3C//DTD SVG 1.1//EN" "http://www.w3.org/Graphics/SVG/1.1/DTD/svg11.dtd">
<svg version="1.1" id="Layer_1" xmlns="http://www.w3.org/2000/svg" xmlns:xlink="http://www.w3.org/1999/xlink" x="0px" y="0px"
	 viewBox="0 0 1044.1 285.7" enable-background="new 0 0 1044.1 285.7" xml:space="preserve">
<g>
	<g>
		<path d="M78.7,46.1h33.2l79.2,182h-45.2l-15.7-38.6H59.4l-15.2,38.6H0L78.7,46.1z M94.1,99.1L72,155.6h44.5L94.1,99.1z"/>
		<path d="M178.4,46.1h54.5l77.4,126.5h0.5V46.1h40.1v182h-52.4L219,98.6h-0.5v129.6h-40.1V46.1z"/>
		<path d="M356.6,46.1h40.1v182h-40.1V46.1z"/>
		<path d="M402.3,46.1H463l41.9,118.8h0.5l42.2-118.8H608v182h-40.1V88.5h-0.5l-47.8,139.6H489L443,88.5h-0.5v139.6h-40.1V46.1z"/>
	</g>
	<g>
		<path fill="none" stroke="#000000" stroke-width="8" stroke-linecap="square" stroke-linejoin="round" d="M606.2,273.6l47.2-256.2
			l114-9.9c-1.6,5.4-3.1,10.6-4.2,15.7c-1.2,5-2.3,10-3.5,15c-1.2,4.9-2.1,9.3-2.8,13c-7,0.7-16.7,1.1-28.9,1.1h-24.3L691,117
			c12.9-0.7,23.7-1.2,32.4-1.4c8.7-0.2,14.3-0.5,16.9-0.7c-0.9,6.8-1.8,13.4-2.6,19.9c-0.8,6.5-1.8,13.1-3,19.9
			c-2.6,0.2-6.6,0.4-12,0.5c-5.4,0.1-11,0.3-16.9,0.5c-5.9,0.2-12.4,0.5-19.7,0.7l-12.3,66.5l52.4-8.4l-3.5,41.2L606.2,273.6z"/>
		<path fill="none" stroke="#000000" stroke-width="8" stroke-linecap="square" stroke-linejoin="round" d="M736.6,273.9
			C757.5,164.8,772.7,78,782.3,13.5l58.4-4.2c-9.4,39.4-17,74.8-22.9,106.3l35.5-4.2c3.3-16.9,6.3-33.4,9-49.4
			c2.7-16.1,6.2-32.6,10.4-49.4c9.4-1.6,19.4-2.9,29.9-3.7c10.6-0.8,17.8-1.3,21.8-1.6l6-0.7c-11.5,37.5-22.8,90.2-33.8,158
			c-5.4,30.5-10.3,61.7-14.8,93.6l-56.3,6.3c3-14.3,5.8-27.8,8.3-40.5c2.5-12.7,4.9-25.2,7.4-37.7c2.5-12.4,4.5-23.1,6.2-32
			l-35.2,3.2c-5.4,29.8-12.1,64.8-20.1,104.9L736.6,273.9z"/>
		<path fill="none" stroke="#000000" stroke-width="8" stroke-linecap="square" stroke-linejoin="round" d="M932.1,281.7
			c-6.3,0-11.5-1-15.5-3c-4-2-7.3-4.5-9.9-7.6c-5.4-6.8-8.1-14.7-8.1-23.6c0-15.2,6.7-26,20.1-32.4c4.5-2.1,9.7-3.2,15.8-3.2
			c14.1,0,24.6,3.3,31.5,9.9c6.9,6.6,10.4,14.1,10.4,22.5c0,10.1-3.9,18.7-11.6,25.7C956.1,277.8,945.2,281.7,932.1,281.7z
			 M1040.1,4c-12.9,30.3-24.7,60.7-35.4,91.3c-10.7,30.6-21.3,61.4-31.8,92.4c-7,0-14,0.2-20.9,0.7c-6.9,0.5-13.9,0.9-20.9,1.4
			c7.5-29.3,14.8-58.6,21.8-88c7-29.3,14.4-58.8,22.2-88.3c4.5-0.7,9.7-1.5,15.7-2.3c6-0.8,12-1.7,17.9-2.6c6-0.9,11.8-1.8,17.4-2.5
			C1031.7,5.4,1036.3,4.7,1040.1,4z"/>
	</g>
</g>
</svg>
