<?xml version="1.0" encoding="utf-8"?>
<!-- Generator: Adobe Illustrator 18.1.0, SVG Export Plug-In . SVG Version: 6.00 Build 0)  -->
<!DOCTYPE svg PUBLIC "-//W3C//DTD SVG 1.1//EN" "http://www.w3.org/Graphics/SVG/1.1/DTD/svg11.dtd">
<svg version="1.1" id="Layer_1" xmlns="http://www.w3.org/2000/svg" xmlns:xlink="http://www.w3.org/1999/xlink" x="0px" y="0px"
	 viewBox="0 0 145.4 105.2" enable-background="new 0 0 145.4 105.2" xml:space="preserve">
<rect x="15.8" y="9" opacity="0.5" fill="#FFFFFF" width="112.7" height="73.1"/>
<g>
	<path stroke="#FFFFFF" stroke-miterlimit="10" d="M133.7,8.4c0-4.4-3.5-7.9-7.9-7.9H19.6c-4.4,0-7.9,3.5-7.9,7.9v73.2
		c0,4.4,3.5,7.9,7.9,7.9h106.2c4.4,0,7.9-3.5,7.9-7.9V8.4z M125.7,79.5h-107v-68h107V79.5z"/>
	<path stroke="#FFFFFF" stroke-miterlimit="10" d="M136.4,104.7H9c-6,0-10.1-5.4-7.9-10.4L3,89.7c1.3-2.9,4.4-4.9,7.9-4.9h123.5
		c3.5,0,6.7,1.9,7.9,4.9l1.9,4.5C146.5,99.3,142.4,104.7,136.4,104.7z"/>
	<path stroke="#FFFFFF" stroke-miterlimit="10" d="M83.5,94.8H61.9c-2.3,0-4.2-1.9-4.2-4.2v-0.3h30v0.3
		C87.7,92.9,85.8,94.8,83.5,94.8z"/>
</g>
</svg>
