<?xml version="1.0" encoding="utf-8"?>
<!-- Generator: Adobe Illustrator 18.1.0, SVG Export Plug-In . SVG Version: 6.00 Build 0)  -->
<!DOCTYPE svg PUBLIC "-//W3C//DTD SVG 1.1//EN" "http://www.w3.org/Graphics/SVG/1.1/DTD/svg11.dtd">
<svg version="1.1" id="Layer_1" xmlns="http://www.w3.org/2000/svg" xmlns:xlink="http://www.w3.org/1999/xlink" x="0px" y="0px"
	 viewBox="-0.5 98.1 497 303.8" enable-background="new -0.5 98.1 497 303.8" xml:space="preserve">
<g>
	<path fill="#FFFFFF" d="M20.9,401.9h475.6V111.2L20.9,401.9z M454.8,303.4c-6.3-2.8-13.4-4.9-18.3-9.2c-8.5-8.5-16.2-19-24-28.2
		c-1.4-2.1-2.8-2.1-4.2-2.1c-1.4,28.9-3.5,57.8-4.9,85.9c0,3.5,1.4,7,0,9.9c-2.8,4.2-7.8,7.7-11.3,12c-2.8-4.2-7.8-7.8-7.8-12
		c-0.7-31-0.7-62-0.7-92.3v-9.9c-14.1,13.4-26.8,26.8-40.1,38.7c-3.5,2.8-8.4,3.5-13.4,5.6c-0.7-4.9-3.5-11.3-2.1-15.5
		c7.7-28.9,30.3-47.9,50-69c8.5-9.2,28.9-5.6,36.6,4.9c14.1,18.3,28.2,37.3,40.1,57C458.3,285.1,454.8,294.9,454.8,303.4z"/>
	<path d="M414.6,222.4c-7.8-10.6-28.2-14.1-36.6-4.9c-19.7,21.1-42.3,40.1-50,69c-1.4,4.2,1.4,10.6,2.1,15.5
		c4.9-2.1,9.9-2.8,13.4-5.6c13.4-12,26.1-25.4,40.1-38.7v9.9c0,30.3,0,61.3,0.7,92.3c0,4.2,4.9,7.7,7.8,12c3.5-4.2,8.5-7.8,11.3-12
		c1.4-2.8,0-6.3,0-9.9c1.4-28.2,3.5-57,4.9-85.9c1.4,0,2.8,0,4.2,2.1c7.8,9.2,15.5,19.7,24,28.2c4.9,4.2,12,6.3,18.3,9.2
		c0-8.5,3.5-18.3,0-23.9C442.8,259.7,428.7,240.7,414.6,222.4z"/>
	<polygon points="496.5,100.6 3.6,401.9 20.9,401.9 496.5,111.2 	"/>
</g>
</svg>
