<?xml version="1.0" encoding="utf-8"?>
<!-- Generator: Adobe Illustrator 18.1.0, SVG Export Plug-In . SVG Version: 6.00 Build 0)  -->
<!DOCTYPE svg PUBLIC "-//W3C//DTD SVG 1.1//EN" "http://www.w3.org/Graphics/SVG/1.1/DTD/svg11.dtd">
<svg version="1.1" id="Layer_1" xmlns="http://www.w3.org/2000/svg" xmlns:xlink="http://www.w3.org/1999/xlink" x="0px" y="0px"
	 viewBox="0 0 17.3 17.3" enable-background="new 0 0 17.3 17.3" xml:space="preserve">
<g>
	<g>
		<path fill="#FFFFFF" d="M7.4,3c1.2,0,2.3,0.5,3.1,1.3c1.7,1.7,1.7,4.5,0,6.2c-0.8,0.8-1.9,1.3-3.1,1.3c-1.2,0-2.3-0.5-3.1-1.3
			C2.6,8.8,2.6,6,4.3,4.3C5.1,3.5,6.2,3,7.4,3 M7.4,0C5.5,0,3.6,0.7,2.2,2.2c-2.9,2.9-2.9,7.6,0,10.5c1.4,1.4,3.3,2.2,5.2,2.2
			s3.8-0.7,5.2-2.2c2.9-2.9,2.9-7.6,0-10.5C11.2,0.7,9.3,0,7.4,0L7.4,0z"/>
	</g>
	
		<rect x="13.3" y="10.4" transform="matrix(0.7071 -0.7071 0.7071 0.7071 -5.6657 13.6782)" fill="none" stroke="#FFFFFF" stroke-width="2" stroke-linejoin="round" stroke-miterlimit="10" width="0.7" height="6.6"/>
</g>
</svg>
