<?xml version="1.0" encoding="utf-8"?>
<!-- Generator: Adobe Illustrator 17.1.0, SVG Export Plug-In . SVG Version: 6.00 Build 0)  -->
<!DOCTYPE svg PUBLIC "-//W3C//DTD SVG 1.1//EN" "http://www.w3.org/Graphics/SVG/1.1/DTD/svg11.dtd">
<svg version="1.1" id="Layer_1" xmlns="http://www.w3.org/2000/svg" xmlns:xlink="http://www.w3.org/1999/xlink" x="0px" y="0px"
	 viewBox="0 216 792 792" enable-background="new 0 216 792 792" xml:space="preserve">
<path fill="#F4F4F5" d="M396,216C177,216,0,393,0,612s177,396,396,396s396-177,396-396S615,216,396,216z M554.4,551.4
	c0,4.7,0,7,0,11.6c0,107.2-81.5,230.6-230.6,230.6c-46.6,0-90.8-14-125.8-37.3c4.7,0,11.6,0,18.6,0c37.3,0,72.2-14,100.2-34.9
	c-37.3,0-67.6-23.3-76.9-55.9c7,2.3,11.6,2.3,16.3,2.3c7,0,14,0,21-2.3c-37.3-7-65.2-39.6-65.2-79.2c11.6,4.7,23.3,9.3,37.3,9.3
	c-23.3-14-37.3-39.6-37.3-67.6c0-16.3,4.7-30.3,11.6-41.9c39.6,51.2,100.2,83.9,167.7,86.2c-2.3-7-2.3-11.6-2.3-18.6
	c0-44.3,37.3-81.5,81.5-81.5c25.6,0,46.6,9.3,60.6,25.6c18.6-2.3,34.9-9.3,51.2-18.6c-4.7,18.6-18.6,34.9-34.9,44.3
	c16.3-2.3,32.6-7,46.6-14C584.7,525.8,570.7,539.8,554.4,551.4z"/>
</svg>
